<svg xmlns="http://www.w3.org/2000/svg" width="300" height="340" viewBox="0 0 300 340"><rect width="300" height="340" fill="#f1eee4"/><text x="15" y="24" font-family="sans-serif" font-size="16" fill="#243c46">The repair yard</text><text x="15" y="44" font-family="sans-serif" font-size="11">26 × 22 m · SELECTED</text><rect x="46" y="90" width="208" height="176" fill="#cfceb8" stroke="#8f9c96" stroke-width=".6"/><rect x="41.19999999999999" y="90" width="4.8" height="176" fill="#586c70" stroke="#8f9c96" stroke-width=".6"/><rect x="254" y="90" width="4.8" height="176" fill="#586c70" stroke="#8f9c96" stroke-width=".6"/><rect x="46" y="85.19999999999999" width="208" height="4.8" fill="#586c70" stroke="#8f9c96" stroke-width=".6"/><rect x="46" y="266" width="208" height="4.8" fill="#586c70" stroke="#8f9c96" stroke-width=".6"/><rect x="46" y="90" width="80" height="80" fill="#586c70" stroke="#8f9c96" stroke-width=".6"/><rect x="190" y="192" width="16" height="20" fill="#586c70" stroke="#8f9c96" stroke-width=".6"/><rect x="138" y="182" width="8" height="8" fill="#ac693b"/><rect x="186" y="158" width="8" height="8" fill="#bd9a55"/><rect x="170" y="198" width="8" height="8" fill="#bd9a55"/><rect x="154" y="158" width="8" height="8" fill="#bd9a55"/><circle cx="206" cy="122" r="4" fill="#b34b31"/><circle cx="214" cy="178" r="4" fill="#b34b31"/><circle cx="86" cy="178" r="4" fill="#b34b31"/><circle cx="198" cy="226" r="4" fill="#b34b31"/><circle cx="85.4176025390625" cy="234" r="5" fill="#258cba"/><polyline fill="none" stroke="#258cba" stroke-width="1.6" opacity=".8" points="85.4176025390625,234 76.35382843017578,233.99855041503906 67.14095306396484,233.99785995483398 76.455078125,232.40493774414062 85.99996948242188,231.58391571044922 83.5820083618164,231.58367919921875 73.53522491455078,231.58230209350586 76.02728271484375,229.1651153564453 85.90988159179688,229.1688346862793 94.22638702392578,224.58605194091797 101.18453216552734,217.62775802612305 106.17886734008789,210.3456687927246 106.17831420898438,200.46056938171387 109.82051849365234,193.085111618042 116.45925521850586,186.44641876220703 131.62847328186035,171.2766556739807 142.0982050895691,160.8022174835205 148.87946963310242,154.0209503173828 150.11492198705673,145.13962936401367 167.17325019836426,128.08129501342773 172.64485931396484,115.40117645263672 165.43005180358887,108.1778335571289 158.2718505859375,114.27233505249023 158.2718152999878,123.59284210205078 158.27204513549805,116.69431686401367 158.2720422744751,106.48013305664062 158.27204132080078,114.85773086547852 158.2720365524292,123.33987808227539 158.27291679382324,116.44083023071289 158.2726526260376,106.96662139892578 158.271484375,133.9530143737793 166.71999549865723,137.72526168823242 176.60586166381836,137.72526168823242 185.1543083190918,132.9101448059082 191.91236877441406,126.15208435058594 200.02280807495117,125.15970993041992 207.76362228393555,132.31900787353516 218.1414566040039,132.31948471069336 228.02703857421875,132.31991577148438 225.60748291015625,132.32110977172852 214.90009307861328,132.3208236694336 219.4535140991211,132.32240295410156"/><polyline fill="none" stroke="#b34b31" stroke-width=".7" opacity=".35" points="205.98049926757812,122.0181884765625 205.72456741333008,122.24951934814453 205.43292617797852,122.49232482910156 205.1274871826172,122.74644088745117 204.82632064819336,123.00910568237305 204.53248596191406,123.28042984008789 204.2296371459961,123.54168319702148 203.91928100585938,123.79401397705078 203.61497497558594,124.05357360839844 203.3197479248047,124.32344055175781 203.0249252319336,124.59376907348633 202.72906112670898,124.86297225952148 202.42285919189453,125.1202507019043 202.10297012329102,125.36031723022461 201.77929306030273,125.59529495239258 201.58152770996094,125.73513412475586 201.58152770996094,125.73513412475586 201.58152770996094,125.73513412475586 201.71075057983398,125.67963409423828 201.83997344970703,125.6241340637207 201.96919631958008,125.56863403320312 202.09841918945312,125.51313400268555 202.22764205932617,125.45763397216797 202.35686492919922,125.40213394165039 202.48608779907227,125.34663391113281 202.6153106689453,125.29113388061523 202.74453353881836,125.23563385009766 202.8802261352539,125.27255630493164 203.01591873168945,125.30947875976562"/><polyline fill="none" stroke="#b34b31" stroke-width=".7" opacity=".35" points="213.97557067871094,178.01068850327283 213.6579933166504,178.1455215960741 213.3047981262207,178.28430968523026 212.93490982055664,178.42938315868378 212.56402587890625,178.5782659649849 212.1956787109375,178.7340688109398 211.82388305664062,178.88157951831818 211.44891357421875,179.02081441879272 211.0753402709961,179.16376519203186 210.70421981811523,179.31300270557404 210.32950973510742,179.4529150724411 209.94991302490234,179.57890617847443 209.56244659423828,179.67757368087769 209.16789627075195,179.74262928962708 208.90098571777344,179.77484488487244 208.90098571777344,179.77484488487244 208.90098571777344,179.77484488487244 208.90098571777344,179.77484488487244 208.90098571777344,179.77484488487244 208.90098571777344,179.77484488487244 208.90098571777344,179.77484488487244 208.90098571777344,179.77484488487244 208.90098571777344,179.77484488487244 208.90098571777344,179.77484488487244 208.90098571777344,179.77484488487244 208.90098571777344,179.77484488487244 208.90098571777344,179.77484488487244 208.90098571777344,179.77484488487244 208.90098571777344,179.77484488487244 208.90098571777344,179.77484488487244 208.90098571777344,179.77484488487244 208.90098571777344,179.77484488487244 208.90098571777344,179.77484488487244 208.98054122924805,179.89080691337585 209.0603790283203,180.00718212127686 209.12868118286133,180.1067385673523 209.18215942382812,180.18468856811523 209.21920776367188,180.2386918067932 209.29876327514648,180.35465335845947 209.3783187866211,180.47061491012573 209.4578742980957,180.586576461792 209.5374298095703,180.70253801345825"/><polyline fill="none" stroke="#b34b31" stroke-width=".7" opacity=".35" points="86.00726318359375,177.93353112787008 85.80368041992188,180.41068863868713 85.7477035522461,180.67847228050232 85.0716552734375,183.1044158935547 84.52854919433594,186.9640235900879 84.7451400756836,191.02896213531494"/><polyline fill="none" stroke="#b34b31" stroke-width=".7" opacity=".35" points="197.93350219726562,226.00474548339844 194.65661239624023,226.23075485229492 189.80364990234375,226.54294967651367 184.72263717651367,226.8587646484375 179.60867881774902,227.11487579345703 174.49020385742188,227.36125564575195 169.3705539703369,227.59345245361328 164.24907684326172,227.77613067626953 159.1250705718994,227.86898803710938 154.73127555847168,227.92496871948242 154.83330488204956,227.93084716796875 153.7119197845459,227.53967666625977 150.30606758594513,225.93620681762695 146.81901621818542,223.45819091796875"/><circle cx="89.06244621482982" cy="177.84023736088102" r="4" fill="#9364a4" opacity=".3"/><circle cx="89.32380655528482" cy="173.0473581873114" r="4" fill="#9364a4" opacity=".3"/><circle cx="89.69782893154246" cy="188.23144142186706" r="4" fill="#9364a4" opacity=".3"/><circle cx="90.34243683109574" cy="185.91962813878524" r="4" fill="#9364a4" opacity=".3"/><circle cx="157.2075458473995" cy="227.4559398765308" r="4" fill="#9364a4" opacity=".3"/><circle cx="162.00668718320435" cy="227.54672775550972" r="4" fill="#9364a4" opacity=".3"/><circle cx="146.37427527349692" cy="223.90022298004024" r="4" fill="#9364a4" opacity=".3"/><circle cx="205.8898444401565" cy="129.0639592075128" r="4" fill="#9364a4" opacity=".3"/><circle cx="210.30022366569042" cy="127.16961101169994" r="4" fill="#9364a4" opacity=".3"/><circle cx="214.7106028912243" cy="125.27526281588706" r="4" fill="#9364a4" opacity=".3"/><circle cx="219.12098211675823" cy="123.38091462007421" r="4" fill="#9364a4" opacity=".3"/><circle cx="212.92035860856197" cy="177.42873957456607" r="4" fill="#9364a4" opacity=".3"/><circle cx="216.99365596227048" cy="183.36576312751495" r="4" fill="#9364a4" opacity=".3"/><circle cx="218.35142174683995" cy="185.3447709784979" r="4" fill="#9364a4" opacity=".3"/><circle cx="222.4247191005484" cy="191.28179453144682" r="4" fill="#9364a4" opacity=".3"/><text x="15" y="320" font-family="sans-serif" font-size="10">Blue/rose: starts · red: anchors/paths · gold: props</text></svg>